<?xml version="1.0" encoding="UTF-8"?>
<svg width="171.13mm" height="183.45mm" version="1.1" viewBox="0 0 606.38 650" xmlns="http://www.w3.org/2000/svg" xmlns:cc="http://creativecommons.org/ns#" xmlns:dc="http://purl.org/dc/elements/1.1/" xmlns:rdf="http://www.w3.org/1999/02/22-rdf-syntax-ns#">
<metadata>
<rdf:RDF>
<cc:Work rdf:about="">
<dc:format>image/svg+xml</dc:format>
<dc:type rdf:resource="http://purl.org/dc/dcmitype/StillImage"/>
<dc:title/>
</cc:Work>
</rdf:RDF>
</metadata>
<path id="country" d="m211.47 1.403 21.213 39.396-21.213 12.122 20.203 37.376-93.944 15.152-12.122 28.284 13.132 6.0609-12.122 54.548-10.102-4.0406-5.0508 12.122 12.122 8.0812-5.0508 23.234-16.162 6.0609-34.345 20.203 9.0914 36.365-17.173 29.294 22.223 54.548-18.183 28.284 28.284 28.284-15.152 13.132 23.234 30.305 37.376 8.0812 41.416 19.193-27.274 28.284-17.173 78.792 15.152 9.0914 60.609-16.162 80.812 38.386 19.193-20.203 28.284 12.122 82.833-25.254 28.284 21.213-8.0812-60.609 53.538-44.447-7.0711-23.234-49.497-34.345-22.223-30.305v-19.193l-14.142-25.254 112.13-65.66 15.152 13.132 16.162-39.396-21.213-51.518-6.0609-52.528-22.223-31.315 12.122-24.244-12.122-53.538-47.477-38.386 21.213-12.122-19.193-20.203-17.173 1.0102v17.173l-37.376 9.0914-46.467 29.294-27.274 3.0304 14.142-27.274 11.112-18.183-12.122-4.0406-14.142 13.132-39.396-7.0711-1.0102-22.223z" fill="#fff" stroke="#8b8b8f" stroke-opacity=".94118" stroke-width="2"/>

<g id="group">
</g>
<path transform="matrix(1 0 0 1 0 -.017243)" d="m-0.69922-1.168v652.76h608.7v-652.76h-608.7zm212.16 2.5879 69.699 13.129 1.0117 22.223 39.395 7.0703 14.141-13.131 12.123 4.041-11.111 18.182-14.143 27.273 27.273-3.0293 46.467-29.295 37.375-9.0898v-17.174l17.172-1.0098 19.193 20.203-21.213 12.121 47.475 38.385 12.123 53.537-12.123 24.244 22.223 31.314 6.0625 52.527 21.211 51.516-16.16 39.395-15.152-13.131-112.13 65.658 14.141 25.254v19.191l22.223 30.305 49.496 34.346 7.0703 23.232-53.537 44.445 8.082 60.609-28.283-21.213-82.832 25.252-28.283-12.121-19.191 20.203-80.811-38.385-60.607 16.16-15.152-9.0898 17.174-78.791 27.273-28.283-41.416-19.193-37.375-8.0801-23.234-30.305 15.152-13.131-28.283-28.283 18.182-28.283-22.221-54.547 17.172-29.295-9.0918-36.363 34.344-20.203 16.162-6.0606 5.0508-23.232-12.121-8.082 5.0508-12.121 10.102 4.041 12.121-54.547-13.131-6.0605 12.121-28.285 93.941-15.15-20.201-37.375 21.211-12.123-21.211-39.395z" fill="white"/>

<rect id="left4" x=".709" y=".709" width="37.958" height="648.09" ry="0" fill="#009af5" stroke="#8b8b8b" stroke-linecap="round" stroke-linejoin="round" stroke-width="1.4174"/>
<rect id="left3" x=".709" y=".709" width="37.958" height="648.09" ry="0" fill="#8ea604" stroke="#8b8b8b" stroke-linecap="round" stroke-linejoin="round" stroke-width="1.4174"/>
<rect id="left2" x=".709" y=".709" width="37.958" height="648.09" ry="0" fill="#a70b10" stroke="#8b8b8b" stroke-linecap="round" stroke-linejoin="round" stroke-width="1.4174"/>
<rect id="left1" x=".709" y=".709" width="37.958" height="648.09" ry="0" fill="#463F3A" stroke="#8b8b8b" stroke-linecap="round" stroke-linejoin="round" stroke-width="1.4174"/>

<rect id="right1" x="567.72" y="1.204" width="37.958" height="648.09" ry="0" fill="#a70b10" stroke="#8b8b8b" stroke-linecap="round" stroke-linejoin="round" stroke-width="1.4174"/>
<rect id="right2" x="567.72" y="1.204" width="37.958" height="648.09" ry="0" fill="#463f3a" stroke="#8b8b8b" stroke-linecap="round" stroke-linejoin="round" stroke-width="1.4174"/>

</svg>
